<svg width="1000" height="656" viewBox="0 0 1000 656" xmlns="http://www.w3.org/2000/svg">
<defs>
<linearGradient id="bgmain" x1="0%" y1="0%" x2="100%" y2="100%"><stop offset="0%" stop-color="#0d1117"/><stop offset="100%" stop-color="#0a0e14"/></linearGradient>
<linearGradient id="grad0" x1="0%" y1="0%" x2="100%" y2="0%"><stop offset="0%" stop-color="#3B82F6"/><stop offset="100%" stop-color="#1D4ED8"/></linearGradient>
<linearGradient id="grad1" x1="0%" y1="0%" x2="100%" y2="0%"><stop offset="0%" stop-color="#22C55E"/><stop offset="100%" stop-color="#15803D"/></linearGradient>
<linearGradient id="grad2" x1="0%" y1="0%" x2="100%" y2="0%"><stop offset="0%" stop-color="#F59E0B"/><stop offset="100%" stop-color="#B45309"/></linearGradient>
<linearGradient id="grad3" x1="0%" y1="0%" x2="100%" y2="0%"><stop offset="0%" stop-color="#A855F7"/><stop offset="100%" stop-color="#7E22CE"/></linearGradient>
<linearGradient id="grad4" x1="0%" y1="0%" x2="100%" y2="0%"><stop offset="0%" stop-color="#64748B"/><stop offset="100%" stop-color="#334155"/></linearGradient>
</defs>
<rect width="1000" height="656" fill="url(#bgmain)"/>
<rect x="40" y="30" width="920" height="108" rx="14" fill="#161b22" stroke="#30363d" stroke-width="1"/>
<rect x="40" y="30" width="6" height="108" rx="3" fill="url(#grad0)"/>
<text x="68" y="64" font-family="Segoe UI, Helvetica, Arial, sans-serif" font-size="19" font-weight="700" fill="#f0f6fc">Interface & Expérience</text>
<text x="68" y="84" font-family="Segoe UI, Helvetica, Arial, sans-serif" font-size="12.5" font-style="italic" fill="#8b949e">Ce que l'utilisateur touche</text>
<rect x="68" y="98" width="87" height="28" rx="14" fill="url(#grad0)" fill-opacity="0.18" stroke="url(#grad0)" stroke-width="1.2"/>
<text x="111.5" y="117.0" font-family="Segoe UI, Helvetica, Arial, sans-serif" font-size="13" font-weight="600" fill="#e6edf3" text-anchor="middle">React</text>
<rect x="165" y="98" width="130" height="28" rx="14" fill="url(#grad0)" fill-opacity="0.18" stroke="url(#grad0)" stroke-width="1.2"/>
<text x="230.0" y="117.0" font-family="Segoe UI, Helvetica, Arial, sans-serif" font-size="13" font-weight="600" fill="#e6edf3" text-anchor="middle">JavaScript</text>
<rect x="305" y="98" width="130" height="28" rx="14" fill="url(#grad0)" fill-opacity="0.18" stroke="url(#grad0)" stroke-width="1.2"/>
<text x="370.0" y="117.0" font-family="Segoe UI, Helvetica, Arial, sans-serif" font-size="13" font-weight="600" fill="#e6edf3" text-anchor="middle">TypeScript</text>
<rect x="445" y="98" width="87" height="28" rx="14" fill="url(#grad0)" fill-opacity="0.18" stroke="url(#grad0)" stroke-width="1.2"/>
<text x="488.5" y="117.0" font-family="Segoe UI, Helvetica, Arial, sans-serif" font-size="13" font-weight="600" fill="#e6edf3" text-anchor="middle">HTML5</text>
<rect x="542" y="98" width="78" height="28" rx="14" fill="url(#grad0)" fill-opacity="0.18" stroke="url(#grad0)" stroke-width="1.2"/>
<text x="581.0" y="117.0" font-family="Segoe UI, Helvetica, Arial, sans-serif" font-size="13" font-weight="600" fill="#e6edf3" text-anchor="middle">CSS3</text>
<rect x="630" y="98" width="165" height="28" rx="14" fill="url(#grad0)" fill-opacity="0.18" stroke="url(#grad0)" stroke-width="1.2"/>
<text x="712.5" y="117.0" font-family="Segoe UI, Helvetica, Arial, sans-serif" font-size="13" font-weight="600" fill="#e6edf3" text-anchor="middle">Android (Java)</text>
<line x1="500.0" y1="138" x2="500.0" y2="152" stroke="#30363d" stroke-width="2"/>
<polygon points="495.0,150 505.0,150 500.0,157" fill="#484f58"/>
<rect x="40" y="152" width="920" height="108" rx="14" fill="#161b22" stroke="#30363d" stroke-width="1"/>
<rect x="40" y="152" width="6" height="108" rx="3" fill="url(#grad1)"/>
<text x="68" y="186" font-family="Segoe UI, Helvetica, Arial, sans-serif" font-size="19" font-weight="700" fill="#f0f6fc">Logique Applicative</text>
<text x="68" y="206" font-family="Segoe UI, Helvetica, Arial, sans-serif" font-size="12.5" font-style="italic" fill="#8b949e">Ce qui fait tourner le produit</text>
<rect x="68" y="220" width="78" height="28" rx="14" fill="url(#grad1)" fill-opacity="0.18" stroke="url(#grad1)" stroke-width="1.2"/>
<text x="107.0" y="239.0" font-family="Segoe UI, Helvetica, Arial, sans-serif" font-size="13" font-weight="600" fill="#e6edf3" text-anchor="middle">Java</text>
<rect x="156" y="220" width="104" height="28" rx="14" fill="url(#grad1)" fill-opacity="0.18" stroke="url(#grad1)" stroke-width="1.2"/>
<text x="208.0" y="239.0" font-family="Segoe UI, Helvetica, Arial, sans-serif" font-size="13" font-weight="600" fill="#e6edf3" text-anchor="middle">Node.js</text>
<rect x="270" y="220" width="104" height="28" rx="14" fill="url(#grad1)" fill-opacity="0.18" stroke="url(#grad1)" stroke-width="1.2"/>
<text x="322.0" y="239.0" font-family="Segoe UI, Helvetica, Arial, sans-serif" font-size="13" font-weight="600" fill="#e6edf3" text-anchor="middle">Express</text>
<rect x="384" y="220" width="87" height="28" rx="14" fill="url(#grad1)" fill-opacity="0.18" stroke="url(#grad1)" stroke-width="1.2"/>
<text x="427.5" y="239.0" font-family="Segoe UI, Helvetica, Arial, sans-serif" font-size="13" font-weight="600" fill="#e6edf3" text-anchor="middle">Flask</text>
<rect x="481" y="220" width="96" height="28" rx="14" fill="url(#grad1)" fill-opacity="0.18" stroke="url(#grad1)" stroke-width="1.2"/>
<text x="529.0" y="239.0" font-family="Segoe UI, Helvetica, Arial, sans-serif" font-size="13" font-weight="600" fill="#e6edf3" text-anchor="middle">Django</text>
<rect x="587" y="220" width="96" height="28" rx="14" fill="url(#grad1)" fill-opacity="0.18" stroke="url(#grad1)" stroke-width="1.2"/>
<text x="635.0" y="239.0" font-family="Segoe UI, Helvetica, Arial, sans-serif" font-size="13" font-weight="600" fill="#e6edf3" text-anchor="middle">Python</text>
<line x1="500.0" y1="260" x2="500.0" y2="274" stroke="#30363d" stroke-width="2"/>
<polygon points="495.0,272 505.0,272 500.0,279" fill="#484f58"/>
<rect x="40" y="274" width="920" height="108" rx="14" fill="#161b22" stroke="#30363d" stroke-width="1"/>
<rect x="40" y="274" width="6" height="108" rx="3" fill="url(#grad2)"/>
<text x="68" y="308" font-family="Segoe UI, Helvetica, Arial, sans-serif" font-size="19" font-weight="700" fill="#f0f6fc">Données</text>
<text x="68" y="328" font-family="Segoe UI, Helvetica, Arial, sans-serif" font-size="12.5" font-style="italic" fill="#8b949e">Ce qui est mémorisé et structuré</text>
<rect x="68" y="342" width="70" height="28" rx="14" fill="url(#grad2)" fill-opacity="0.18" stroke="url(#grad2)" stroke-width="1.2"/>
<text x="103.0" y="361.0" font-family="Segoe UI, Helvetica, Arial, sans-serif" font-size="13" font-weight="600" fill="#e6edf3" text-anchor="middle">SQL</text>
<rect x="148" y="342" width="87" height="28" rx="14" fill="url(#grad2)" fill-opacity="0.18" stroke="url(#grad2)" stroke-width="1.2"/>
<text x="191.5" y="361.0" font-family="Segoe UI, Helvetica, Arial, sans-serif" font-size="13" font-weight="600" fill="#e6edf3" text-anchor="middle">MySQL</text>
<rect x="245" y="342" width="104" height="28" rx="14" fill="url(#grad2)" fill-opacity="0.18" stroke="url(#grad2)" stroke-width="1.2"/>
<text x="297.0" y="361.0" font-family="Segoe UI, Helvetica, Arial, sans-serif" font-size="13" font-weight="600" fill="#e6edf3" text-anchor="middle">MongoDB</text>
<rect x="359" y="342" width="87" height="28" rx="14" fill="url(#grad2)" fill-opacity="0.18" stroke="url(#grad2)" stroke-width="1.2"/>
<text x="402.5" y="361.0" font-family="Segoe UI, Helvetica, Arial, sans-serif" font-size="13" font-weight="600" fill="#e6edf3" text-anchor="middle">NoSQL</text>
<line x1="500.0" y1="382" x2="500.0" y2="396" stroke="#30363d" stroke-width="2"/>
<polygon points="495.0,394 505.0,394 500.0,401" fill="#484f58"/>
<rect x="40" y="396" width="920" height="108" rx="14" fill="#161b22" stroke="#30363d" stroke-width="1"/>
<rect x="40" y="396" width="6" height="108" rx="3" fill="url(#grad3)"/>
<text x="68" y="430" font-family="Segoe UI, Helvetica, Arial, sans-serif" font-size="19" font-weight="700" fill="#f0f6fc">Intelligence</text>
<text x="68" y="450" font-family="Segoe UI, Helvetica, Arial, sans-serif" font-size="12.5" font-style="italic" fill="#8b949e">Ce qui apprend et raisonne</text>
<rect x="68" y="464" width="182" height="28" rx="14" fill="url(#grad3)" fill-opacity="0.18" stroke="url(#grad3)" stroke-width="1.2"/>
<text x="159.0" y="483.0" font-family="Segoe UI, Helvetica, Arial, sans-serif" font-size="13" font-weight="600" fill="#e6edf3" text-anchor="middle">Machine Learning</text>
<rect x="260" y="464" width="156" height="28" rx="14" fill="url(#grad3)" fill-opacity="0.18" stroke="url(#grad3)" stroke-width="1.2"/>
<text x="338.0" y="483.0" font-family="Segoe UI, Helvetica, Arial, sans-serif" font-size="13" font-weight="600" fill="#e6edf3" text-anchor="middle">Generative AI</text>
<rect x="426" y="464" width="200" height="28" rx="14" fill="url(#grad3)" fill-opacity="0.18" stroke="url(#grad3)" stroke-width="1.2"/>
<text x="526.0" y="483.0" font-family="Segoe UI, Helvetica, Arial, sans-serif" font-size="13" font-weight="600" fill="#e6edf3" text-anchor="middle">Prompt Engineering</text>
<rect x="636" y="464" width="148" height="28" rx="14" fill="url(#grad3)" fill-opacity="0.18" stroke="url(#grad3)" stroke-width="1.2"/>
<text x="710.0" y="483.0" font-family="Segoe UI, Helvetica, Arial, sans-serif" font-size="13" font-weight="600" fill="#e6edf3" text-anchor="middle">Data Science</text>
<line x1="500.0" y1="504" x2="500.0" y2="518" stroke="#30363d" stroke-width="2"/>
<polygon points="495.0,516 505.0,516 500.0,523" fill="#484f58"/>
<rect x="40" y="518" width="920" height="108" rx="14" fill="#161b22" stroke="#30363d" stroke-width="1"/>
<rect x="40" y="518" width="6" height="108" rx="3" fill="url(#grad4)"/>
<text x="68" y="552" font-family="Segoe UI, Helvetica, Arial, sans-serif" font-size="19" font-weight="700" fill="#f0f6fc">Infrastructure & Outils</text>
<text x="68" y="572" font-family="Segoe UI, Helvetica, Arial, sans-serif" font-size="12.5" font-style="italic" fill="#8b949e">Ce qui livre et fiabilise</text>
<rect x="68" y="586" width="70" height="28" rx="14" fill="url(#grad4)" fill-opacity="0.18" stroke="url(#grad4)" stroke-width="1.2"/>
<text x="103.0" y="605.0" font-family="Segoe UI, Helvetica, Arial, sans-serif" font-size="13" font-weight="600" fill="#e6edf3" text-anchor="middle">Git</text>
<rect x="148" y="586" width="165" height="28" rx="14" fill="url(#grad4)" fill-opacity="0.18" stroke="url(#grad4)" stroke-width="1.2"/>
<text x="230.5" y="605.0" font-family="Segoe UI, Helvetica, Arial, sans-serif" font-size="13" font-weight="600" fill="#e6edf3" text-anchor="middle">GitHub Actions</text>
<rect x="323" y="586" width="96" height="28" rx="14" fill="url(#grad4)" fill-opacity="0.18" stroke="url(#grad4)" stroke-width="1.2"/>
<text x="371.0" y="605.0" font-family="Segoe UI, Helvetica, Arial, sans-serif" font-size="13" font-weight="600" fill="#e6edf3" text-anchor="middle">Docker</text>
<rect x="429" y="586" width="87" height="28" rx="14" fill="url(#grad4)" fill-opacity="0.18" stroke="url(#grad4)" stroke-width="1.2"/>
<text x="472.5" y="605.0" font-family="Segoe UI, Helvetica, Arial, sans-serif" font-size="13" font-weight="600" fill="#e6edf3" text-anchor="middle">CI/CD</text>
<rect x="526" y="586" width="87" height="28" rx="14" fill="url(#grad4)" fill-opacity="0.18" stroke="url(#grad4)" stroke-width="1.2"/>
<text x="569.5" y="605.0" font-family="Segoe UI, Helvetica, Arial, sans-serif" font-size="13" font-weight="600" fill="#e6edf3" text-anchor="middle">Linux</text>
<rect x="623" y="586" width="130" height="28" rx="14" fill="url(#grad4)" fill-opacity="0.18" stroke="url(#grad4)" stroke-width="1.2"/>
<text x="688.0" y="605.0" font-family="Segoe UI, Helvetica, Arial, sans-serif" font-size="13" font-weight="600" fill="#e6edf3" text-anchor="middle">Networking</text>
</svg>